<mxfile host="65bd71144e" modified="2021-02-17T17:27:00.216Z" agent="5.0 (Windows NT 10.0; Win64; x64) AppleWebKit/537.36 (KHTML, like Gecko) Code/1.53.2 Chrome/87.0.4280.141 Electron/11.2.1 Safari/537.36" etag="eNBCuj2C8NXxgZv9PpPP" version="14.2.4" type="embed">
    <diagram id="es6pCar5FpMOWPXi4KVs" name="Container">
        <mxGraphModel dx="1001" dy="1182" grid="1" gridSize="10" guides="1" tooltips="1" connect="1" arrows="1" fold="1" page="1" pageScale="1" pageWidth="850" pageHeight="1100" math="0" shadow="0">
            <root>
                <mxCell id="0"/>
                <mxCell id="1" parent="0"/>
                <mxCell id="2" value="" style="rounded=1;whiteSpace=wrap;html=1;labelBackgroundColor=#333333;strokeWidth=1;strokeColor=#0066CC;fillColor=#454545;" parent="1" vertex="1">
                    <mxGeometry x="20" y="354.65999999999997" width="795" height="484.22" as="geometry"/>
                </mxCell>
                <mxCell id="3" value="" style="shape=image;html=1;verticalAlign=top;verticalLabelPosition=bottom;labelBackgroundColor=#ffffff;imageAspect=0;aspect=fixed;image=https://cdn0.iconfinder.com/data/icons/education-flat-7/128/23_Flask-128.png;strokeWidth=1;fillColor=#1A1A1A;" parent="1" vertex="1">
                    <mxGeometry x="128.9" y="528.27" width="64" height="64" as="geometry"/>
                </mxCell>
                <mxCell id="4" value="" style="verticalLabelPosition=bottom;html=1;verticalAlign=top;align=center;strokeColor=none;fillColor=#00BEF2;shape=mxgraph.azure.website_generic;pointerEvents=1;" parent="1" vertex="1">
                    <mxGeometry x="300" y="446.77" width="181" height="160" as="geometry"/>
                </mxCell>
                <mxCell id="5" style="edgeStyle=orthogonalEdgeStyle;rounded=0;orthogonalLoop=1;jettySize=auto;html=1;strokeWidth=2;" parent="1" source="6" target="8" edge="1">
                    <mxGeometry relative="1" as="geometry">
                        <mxPoint x="690" y="200" as="targetPoint"/>
                        <Array as="points">
                            <mxPoint x="684" y="150"/>
                        </Array>
                    </mxGeometry>
                </mxCell>
                <mxCell id="6" value="" style="aspect=fixed;html=1;points=[];align=center;image;fontSize=12;image=img/lib/mscae/Person.svg;" parent="1" vertex="1">
                    <mxGeometry x="360" y="70" width="88.8" height="120" as="geometry"/>
                </mxCell>
                <mxCell id="7" value="End User" style="text;html=1;strokeColor=none;fillColor=none;align=center;verticalAlign=middle;whiteSpace=wrap;rounded=0;fontSize=13;fontStyle=1" parent="1" vertex="1">
                    <mxGeometry x="384.4" y="160" width="40" height="20" as="geometry"/>
                </mxCell>
                <mxCell id="8" value="" style="html=1;aspect=fixed;strokeColor=none;shadow=0;align=center;verticalAlign=top;shape=mxgraph.gcp2.website;labelBackgroundColor=#333333;fillColor=#2BC9F1;" parent="1" vertex="1">
                    <mxGeometry x="640" y="446.77" width="150" height="145.5" as="geometry"/>
                </mxCell>
                <mxCell id="9" value="" style="rounded=0;whiteSpace=wrap;html=1;labelBackgroundColor=none;strokeWidth=2;fontSize=14;rotation=90;fillColor=none;dashed=1;strokeColor=#0073E6;" parent="1" vertex="1">
                    <mxGeometry x="136.71" y="321.73" width="310.26" height="443.13" as="geometry"/>
                </mxCell>
                <mxCell id="10" value="Hosted Web Page" style="text;html=1;strokeColor=none;fillColor=none;align=center;verticalAlign=middle;whiteSpace=wrap;rounded=0;dashed=1;labelBackgroundColor=none;fontSize=14;" parent="1" vertex="1">
                    <mxGeometry x="640" y="592.27" width="90" height="20" as="geometry"/>
                </mxCell>
                <mxCell id="11" value="App code" style="text;html=1;strokeColor=none;fillColor=none;align=center;verticalAlign=middle;whiteSpace=wrap;rounded=0;dashed=1;labelBackgroundColor=none;fontSize=14;" parent="1" vertex="1">
                    <mxGeometry x="300" y="586.77" width="90" height="20" as="geometry"/>
                </mxCell>
                <mxCell id="12" value="Python&amp;nbsp;" style="text;html=1;strokeColor=none;fillColor=none;align=center;verticalAlign=middle;whiteSpace=wrap;rounded=0;dashed=1;labelBackgroundColor=none;fontSize=14;" parent="1" vertex="1">
                    <mxGeometry x="115.9" y="491.77" width="90" height="20" as="geometry"/>
                </mxCell>
                <mxCell id="13" value="Web Framework: Flask" style="text;html=1;strokeColor=none;fillColor=none;align=center;verticalAlign=middle;whiteSpace=wrap;rounded=0;dashed=1;labelBackgroundColor=none;fontSize=14;" parent="1" vertex="1">
                    <mxGeometry x="100" y="601.77" width="124.1" height="20" as="geometry"/>
                </mxCell>
                <mxCell id="14" value="" style="shape=image;html=1;verticalAlign=top;verticalLabelPosition=bottom;labelBackgroundColor=#ffffff;imageAspect=0;aspect=fixed;image=https://cdn4.iconfinder.com/data/icons/logos-and-brands/512/267_Python_logo-128.png;dashed=1;strokeColor=#0066CC;strokeWidth=1;fillColor=none;fontSize=14;" parent="1" vertex="1">
                    <mxGeometry x="122.05000000000001" y="411.77" width="80" height="80" as="geometry"/>
                </mxCell>
                <mxCell id="15" value="Gunicorn server" style="text;html=1;strokeColor=none;fillColor=none;align=center;verticalAlign=middle;whiteSpace=wrap;rounded=0;dashed=1;labelBackgroundColor=none;fontSize=17;fontStyle=1" parent="1" vertex="1">
                    <mxGeometry x="70" y="671.77" width="160" height="20" as="geometry"/>
                </mxCell>
                <mxCell id="16" value="User input: writes, updates, deletes&amp;nbsp;" style="text;html=1;strokeColor=none;align=center;verticalAlign=middle;whiteSpace=wrap;rounded=0;dashed=1;labelBackgroundColor=none;fontSize=17;fillColor=#2A2A2A;" parent="1" vertex="1">
                    <mxGeometry x="590" y="210" width="200" height="40" as="geometry"/>
                </mxCell>
                <mxCell id="17" value="" style="endArrow=classic;html=1;strokeWidth=2;fontSize=17;" parent="1" edge="1">
                    <mxGeometry width="50" height="50" relative="1" as="geometry">
                        <mxPoint x="710" y="622" as="sourcePoint"/>
                        <mxPoint x="400" y="600" as="targetPoint"/>
                        <Array as="points">
                            <mxPoint x="710" y="679"/>
                            <mxPoint x="710" y="800"/>
                            <mxPoint x="400" y="800"/>
                        </Array>
                    </mxGeometry>
                </mxCell>
                <mxCell id="18" style="edgeStyle=orthogonalEdgeStyle;rounded=0;orthogonalLoop=1;jettySize=auto;html=1;strokeWidth=2;fontSize=17;" parent="1" source="19" target="20" edge="1">
                    <mxGeometry relative="1" as="geometry">
                        <Array as="points">
                            <mxPoint x="551" y="780"/>
                            <mxPoint x="551" y="780"/>
                        </Array>
                    </mxGeometry>
                </mxCell>
                <mxCell id="19" value="User requests: GET/POST/PUT/DELETE" style="text;html=1;strokeColor=none;align=center;verticalAlign=middle;whiteSpace=wrap;rounded=0;dashed=1;labelBackgroundColor=none;fontSize=17;fillColor=#474747;" parent="1" vertex="1">
                    <mxGeometry x="451" y="780" width="200" height="40" as="geometry"/>
                </mxCell>
                <mxCell id="20" value="" style="html=1;dashed=0;whitespace=wrap;fillColor=#2875E2;strokeColor=#ffffff;points=[[0.005,0.63,0],[0.1,0.2,0],[0.9,0.2,0],[0.5,0,0],[0.995,0.63,0],[0.72,0.99,0],[0.5,1,0],[0.28,0.99,0]];shape=mxgraph.kubernetes.icon;prIcon=api" parent="1" vertex="1">
                    <mxGeometry x="481" y="910" width="140" height="128" as="geometry"/>
                </mxCell>
                <mxCell id="21" value="Trello API" style="text;html=1;strokeColor=none;fillColor=none;align=center;verticalAlign=middle;whiteSpace=wrap;rounded=0;fontSize=15;" parent="1" vertex="1">
                    <mxGeometry x="511" y="1038" width="80" height="20" as="geometry"/>
                </mxCell>
                <mxCell id="22" value="" style="endArrow=classic;html=1;strokeWidth=2;fontSize=17;" parent="1" edge="1">
                    <mxGeometry width="50" height="50" relative="1" as="geometry">
                        <mxPoint x="430" y="620" as="sourcePoint"/>
                        <mxPoint x="680" y="620" as="targetPoint"/>
                        <Array as="points">
                            <mxPoint x="430" y="750"/>
                            <mxPoint x="680" y="750"/>
                        </Array>
                    </mxGeometry>
                </mxCell>
                <mxCell id="23" value="Updates page" style="text;html=1;strokeColor=none;align=center;verticalAlign=middle;whiteSpace=wrap;rounded=0;dashed=1;labelBackgroundColor=none;fontSize=17;fillColor=#474747;" parent="1" vertex="1">
                    <mxGeometry x="511" y="714.86" width="119" height="50" as="geometry"/>
                </mxCell>
                <mxCell id="24" value="To do Application" style="text;html=1;strokeColor=none;fillColor=none;align=center;verticalAlign=middle;whiteSpace=wrap;rounded=0;dashed=1;labelBackgroundColor=none;fontSize=17;fontStyle=1" parent="1" vertex="1">
                    <mxGeometry x="64.1" y="810" width="160" height="20" as="geometry"/>
                </mxCell>
            </root>
        </mxGraphModel>
    </diagram>
</mxfile>